<?xml version="1.0" encoding="UTF-8"?>
<svg version="1.1" xmlns="http://www.w3.org/2000/svg" width="64" height="64">
<path d="M0 0 C1.8125 0.1875 1.8125 0.1875 4 1 C5.5 3.25 5.5 3.25 7 6 C8.31037934 7.68477344 9.63823078 9.35648543 11 11 C11.53625 10.505 12.0725 10.01 12.625 9.5 C15.71852796 7.54619287 17.39369166 7.48481309 21 8 C25.36122399 10.63701916 26.8078921 13.52444637 29 18 C29.886875 18.78375 30.77375 19.5675 31.6875 20.375 C34.06549024 23.07434027 34.41802632 23.66938597 34.625 27.0625 C34 31 34 31 31.8515625 33.265625 C28.3472466 35.39701714 26.76441749 35.24505798 22.75 34.6875 C18.61601986 34.2011494 15.10153569 33.97179579 11 34.6875 C7.7561103 35.12957705 7.08148607 35.03824857 3.9375 33.5625 C1.12345549 29.84069919 1.5547474 27.60094358 2 23 C2.33 22.34 2.66 21.68 3 21 C2.071875 20.608125 1.14375 20.21625 0.1875 19.8125 C-3.31201874 17.82257758 -4.53113387 16.71536728 -6 13 C-5.87130707 9.78267686 -5.72433351 7.8188118 -3.5625 5.375 C-3.046875 4.92125 -2.53125 4.4675 -2 4 C-0.82425289 1.90010348 -0.82425289 1.90010348 0 0 Z M9 13 C10 15 10 15 10 15 Z " fill="#000000" transform="translate(14,19)"/>
<path d="M0 0 C1.32 0 2.64 0 4 0 C5.76462683 3.08809695 6 4.23312136 6 8 C6.66 8 7.32 8 8 8 C8.12375 7.236875 8.2475 6.47375 8.375 5.6875 C9 3 9 3 11 0 C12.32 0 13.64 0 15 0 C16.44921875 1.609375 16.44921875 1.609375 17.6875 3.75 C18.10386719 4.44609375 18.52023438 5.1421875 18.94921875 5.859375 C19.9564109 7.91120139 20.54252449 9.76792168 21 12 C22.32 11.34 23.64 10.68 25 10 C30.88130734 17.54013761 30.88130734 17.54013761 31 23 C30.25390782 25.98436874 29.67537515 27.4693481 27.25 29.375 C24.16083683 30.23310088 22.07276879 29.84991477 19 29 C16.59895994 27.3441103 16.09137997 26.3045999 15.25 23.5 C15 21 15 21 16 18 C13.69 17.67 11.38 17.34 9 17 C8.67 15.35 8.34 13.7 8 12 C7.34 12 6.68 12 6 12 C5.87625 12.804375 5.7525 13.60875 5.625 14.4375 C5.41875 15.283125 5.2125 16.12875 5 17 C2.17116253 18.41441874 0.12623255 18.31900332 -3 18 C-4.9375 16.5625 -4.9375 16.5625 -6 14 C-6.13290792 10.8822018 -6.04366063 7.95418693 -5 5 C-3.69052788 4.28760616 -2.35627816 3.6186532 -1 3 C-0.67 2.01 -0.34 1.02 0 0 Z " fill="#000000" transform="translate(25,8)"/>
</svg>
